<svg width="186" height="40" viewBox="0 0 186 40" fill="none" xmlns="http://www.w3.org/2000/svg">
<g clip-path="url(#clip0_2370_21653)">
<path d="M50.9862 0.698242H46.1572V32.1514H50.9862V0.698242Z" fill="#0D1292"/>
<path d="M81.9304 34.4482H46.2411V39.4137H81.9304V34.4482Z" fill="#0D1292"/>
<path d="M94.2975 0.682617H89.4686V32.0861H94.2975V0.682617Z" fill="#0D1292"/>
<path d="M128.103 0.682617H123.274V32.0861H128.103V0.682617Z" fill="#0D1292"/>
<path d="M123.274 34.4883H94.2977V39.3172H123.274V34.4883Z" fill="#0D1292"/>
<path d="M33.75 0.682617H0.155437V5.51154H33.75V0.682617Z" fill="#0D1292"/>
<path d="M4.82893 15.8713V0.621094H0V15.8713V17.5844V22.4133V34.4888V39.3177V39.3332H4.82893V39.3177H33.7528V34.4888H4.82893V22.4133H33.7528V17.5844H4.82893V15.8713Z" fill="#0D1292"/>
<path d="M38.4824 5.58594H33.8273V17.6893H38.4824V5.58594Z" fill="#0D1292"/>
<path d="M38.4824 22.3447H33.8273V34.4481H38.4824V22.3447Z" fill="#0D1292"/>
<path d="M134.496 3.41687L149.29 18.2078L152.71 14.7971L137.913 0L134.496 3.41687Z" fill="#0D1292"/>
<path d="M156.288 25.2027L171.085 39.9998L174.496 36.5829L159.705 21.792L156.288 25.2027Z" fill="#0D1292"/>
<path d="M149.287 21.7863L134.494 36.5791L137.911 39.9959L152.704 25.2031L149.287 21.7863Z" fill="#0D1292"/>
<path d="M156.288 14.7971L159.705 18.214L174.496 3.41687L171.085 0L156.288 14.7971Z" fill="#0D1292"/>
<path d="M178.149 0.673005H179.198V3.54677H179.85V0.673005H180.899V0.0771484H178.149V0.673005Z" fill="#0D1292"/>
<path d="M185.001 0L183.35 2.15377L181.696 0H181.6V3.54721H182.252V1.68826L183.316 3.11584H183.363L184.44 1.67274V3.54721H185.101V0H185.001Z" fill="#0D1292"/>
</g>
<defs>
<clipPath id="clip0_2370_21653">
<rect width="185.101" height="40" fill="white"/>
</clipPath>
</defs>
</svg>
