<svg width="186" height="40" viewBox="0 0 186 40" fill="none" xmlns="http://www.w3.org/2000/svg">
<g clip-path="url(#clip0_2950_47715)">
<path d="M50.9862 0.698242H46.1572V32.1514H50.9862V0.698242Z" fill="white"/>
<path d="M81.9304 34.4478H46.2411V39.4132H81.9304V34.4478Z" fill="white"/>
<path d="M94.2976 0.682617H89.4686V32.0861H94.2976V0.682617Z" fill="white"/>
<path d="M128.103 0.682617H123.274V32.0861H128.103V0.682617Z" fill="white"/>
<path d="M123.274 34.4883H94.2977V39.3172H123.274V34.4883Z" fill="white"/>
<path d="M33.75 0.682617H0.155396V5.51154H33.75V0.682617Z" fill="white"/>
<path d="M4.82893 15.8708V0.620605H0V15.8708V17.5839V22.4128V34.4883V39.3172V39.3327H4.82893V39.3172H33.7528V34.4883H4.82893V22.4128H33.7528V17.5839H4.82893V15.8708Z" fill="white"/>
<path d="M38.4824 5.58643H33.8273V17.6898H38.4824V5.58643Z" fill="white"/>
<path d="M38.4824 22.3447H33.8273V34.4481H38.4824V22.3447Z" fill="white"/>
<path d="M134.496 3.41687L149.29 18.2078L152.71 14.7971L137.913 0L134.496 3.41687Z" fill="white"/>
<path d="M156.288 25.2027L171.085 39.9998L174.496 36.5829L159.705 21.792L156.288 25.2027Z" fill="white"/>
<path d="M149.287 21.7868L134.494 36.5796L137.911 39.9964L152.704 25.2036L149.287 21.7868Z" fill="white"/>
<path d="M156.288 14.7971L159.705 18.214L174.496 3.41687L171.085 0L156.288 14.7971Z" fill="white"/>
<path d="M178.149 0.673494H179.198V3.54726H179.85V0.673494H180.899V0.0776367H178.149V0.673494Z" fill="white"/>
<path d="M185.001 0L183.35 2.15377L181.696 0H181.6V3.54721H182.252V1.68826L183.316 3.11584H183.363L184.44 1.67274V3.54721H185.101V0H185.001Z" fill="white"/>
</g>
<defs>
<clipPath id="clip0_2950_47715">
<rect width="185.101" height="40" fill="white"/>
</clipPath>
</defs>
</svg>
